<svg width="29" height="31" viewBox="0 0 29 31" fill="none" xmlns="http://www.w3.org/2000/svg">
<g id="_x37_7_Essential_Icons">
<path id="Share" d="M22.6202 20.1249C21.0237 20.1249 19.5934 20.882 18.6953 22.0341L10.6127 17.3927C11.1116 16.1748 11.1116 14.8252 10.6127 13.6073L18.6953 8.96595C19.5934 10.118 21.0237 10.8751 22.6202 10.8751C25.381 10.8751 27.6095 8.66969 27.6095 5.93757C27.6095 3.20545 25.381 1 22.6202 1C19.8595 1 17.631 3.20545 17.631 5.93757C17.631 6.59591 17.764 7.25426 17.9968 7.81385L9.91419 12.4881C8.98286 11.336 7.58586 10.5789 5.98929 10.5789C3.22855 10.5789 1 12.7843 1 15.5165C1 18.2486 3.22855 20.454 5.98929 20.454C7.58586 20.454 9.01612 19.6969 9.91419 18.5448L17.9968 23.1862C17.764 23.7457 17.631 24.4041 17.631 25.0624C17.631 27.7945 19.8595 30 22.6202 30C25.381 30 27.6095 27.7945 27.6095 25.0624C27.6095 22.3303 25.381 20.1249 22.6202 20.1249ZM22.6202 2.3496C24.6492 2.3496 26.2791 3.96254 26.2791 5.97049C26.2791 7.97843 24.6492 9.59137 22.6202 9.59137C20.5913 9.59137 18.9614 7.97843 18.9614 5.97049C18.9614 3.96254 20.5913 2.3496 22.6202 2.3496ZM5.98929 19.1373C3.96031 19.1373 2.33048 17.5244 2.33048 15.5165C2.33048 13.5085 3.96031 11.8956 5.98929 11.8956C8.01826 11.8956 9.6481 13.5085 9.6481 15.5165C9.6481 17.5244 8.01826 19.1373 5.98929 19.1373ZM22.6202 28.6833C20.5913 28.6833 18.9614 27.0704 18.9614 25.0624C18.9614 23.0545 20.5913 21.4415 22.6202 21.4415C24.6492 21.4415 26.2791 23.0545 26.2791 25.0624C26.2791 27.0704 24.6492 28.6833 22.6202 28.6833Z" fill="#663700" stroke="#663700"/>
</g>
</svg>
