<svg width="37" height="35" viewBox="0 0 37 35" fill="none" xmlns="http://www.w3.org/2000/svg">
<path id="Vector" d="M35.9811 14.2165C36.1225 13.2688 35.4559 12.3878 34.4923 12.2487L24.5323 10.8168L20.0816 1.89694C19.9213 1.62486 19.6913 1.3989 19.4144 1.24159C18.5402 0.744719 17.4218 1.0388 16.9165 1.89863L12.4674 10.8168L2.50744 12.2488C2.12664 12.3037 1.77468 12.4797 1.505 12.7498C0.822696 13.4333 0.83313 14.5313 1.52813 15.2023L8.74125 22.1571L7.03909 31.974C7.02295 32.0679 7.01467 32.163 7.01445 32.2585C7.01176 33.2176 7.80024 33.9974 8.77567 34C9.06321 33.9996 9.34633 33.9299 9.60008 33.7969L18.4999 29.1694L27.398 33.7952C27.7419 33.9747 28.1364 34.0372 28.5202 33.9729C29.4793 33.812 30.1242 32.9172 29.9607 31.974L28.2585 22.1571L35.4733 15.2005C35.747 14.9356 35.9252 14.5901 35.9811 14.2165ZM26.6957 21.2362C26.4894 21.4353 26.395 21.7209 26.4427 22.0013L28.2224 32.2633L18.9112 27.4225C18.6534 27.2904 18.3464 27.2904 18.0885 27.4225L8.7774 32.265L10.5569 22.0014C10.6048 21.721 10.5103 21.4354 10.3039 21.2363L2.76205 13.9651L13.1816 12.4671C13.4693 12.4248 13.7176 12.2465 13.846 11.9898L18.4999 2.66219L23.1536 11.9897C23.2821 12.2464 23.5304 12.4247 23.8181 12.467L34.2393 13.9633L26.6957 21.2362Z" fill="#D0AA70" stroke="#96662F" stroke-width="2"/>
</svg>
