<svg width="7" height="29" viewBox="0 0 7 29" fill="none" xmlns="http://www.w3.org/2000/svg">
<path id="Vector" d="M3.5 6.44445C4.19223 6.44445 4.86892 6.25547 5.44449 5.9014C6.02007 5.54734 6.46867 5.0441 6.73358 4.45531C6.99848 3.86653 7.06779 3.21865 6.93275 2.5936C6.7977 1.96855 6.46435 1.3944 5.97487 0.943768C5.48539 0.493132 4.86175 0.186246 4.18282 0.0619155C3.50388 -0.0624146 2.80015 0.00139613 2.16061 0.245278C1.52107 0.489161 0.974443 0.902161 0.589858 1.43205C0.205273 1.96194 1.88613e-06 2.58493 1.88613e-06 3.22222C1.88613e-06 4.07681 0.368751 4.89639 1.02513 5.50068C1.68151 6.10496 2.57174 6.44445 3.5 6.44445ZM3.5 22.5556C2.80777 22.5556 2.13108 22.7445 1.55551 23.0986C0.979934 23.4527 0.53133 23.9559 0.266423 24.5447C0.00151648 25.1335 -0.0677951 25.7813 0.067253 26.4064C0.202301 27.0314 0.535645 27.6056 1.02513 28.0562C1.51461 28.5069 2.13825 28.8138 2.81718 28.9381C3.49612 29.0624 4.19985 28.9986 4.83939 28.7547C5.47893 28.5108 6.02556 28.0978 6.41014 27.5679C6.79473 27.0381 7 26.4151 7 25.7778C7 24.9232 6.63125 24.1036 5.97487 23.4993C5.31849 22.895 4.42826 22.5556 3.5 22.5556ZM3.5 11.2778C2.80777 11.2778 2.13108 11.4668 1.55551 11.8208C0.979934 12.1749 0.53133 12.6781 0.266423 13.2669C0.00151648 13.8557 -0.0677951 14.5036 0.067253 15.1286C0.202301 15.7537 0.535645 16.3278 1.02513 16.7785C1.51461 17.2291 2.13825 17.536 2.81718 17.6603C3.49612 17.7846 4.19985 17.7208 4.83939 17.4769C5.47893 17.2331 6.02556 16.8201 6.41014 16.2902C6.79473 15.7603 7 15.1373 7 14.5C7 13.6454 6.63125 12.8258 5.97487 12.2215C5.31849 11.6173 4.42826 11.2778 3.5 11.2778Z" fill="#663700"/>
</svg>
