<svg width="29" height="31" viewBox="0 0 29 31" fill="none" xmlns="http://www.w3.org/2000/svg">
<path id="39-Notification" d="M27.584 22.204C27.2929 21.6865 26.9394 21.1691 26.5443 20.6207C25.6042 19.4522 24.9526 18.0805 24.6417 16.6158L24.2051 10.5102C23.9452 5.78098 21.1693 1 15.6487 1H13.3406C7.81999 1 5.0233 5.78098 4.74259 10.4999L4.30593 16.6158C3.99642 18.0935 3.34497 19.4789 2.40334 20.6621C2.04986 21.2002 1.69637 21.6969 1.45725 22.1626C1.20062 22.5054 1.04519 22.9127 1.00846 23.3387C0.971723 23.7647 1.05514 24.1924 1.24932 24.5738C1.47587 24.9743 1.80963 25.3043 2.21345 25.5272C2.61726 25.7501 3.0753 25.8571 3.53658 25.8363H11.5628C11.3918 26.3052 11.3368 26.8082 11.4026 27.3028C11.4683 27.7973 11.6529 28.2688 11.9405 28.6773C12.2282 29.0858 12.6105 29.4193 13.0551 29.6495C13.4997 29.8798 13.9935 30 14.4946 30C14.9958 30 15.4896 29.8798 15.9342 29.6495C16.3788 29.4193 16.7611 29.0858 17.0487 28.6773C17.3364 28.2688 17.5209 27.7973 17.5867 27.3028C17.6524 26.8082 17.5975 26.3052 17.4265 25.8363H25.4527C25.9182 25.8531 26.3792 25.7399 26.7834 25.5095C27.1876 25.279 27.519 24.9406 27.7399 24.5324C27.9343 24.1683 28.0226 23.7574 27.9951 23.3461C27.9675 22.9347 27.8251 22.5392 27.584 22.204ZM15.5343 26.8711C15.5343 27.0758 15.4733 27.2759 15.3591 27.4461C15.2448 27.6162 15.0825 27.7489 14.8925 27.8272C14.7025 27.9055 14.4935 27.926 14.2918 27.8861C14.0901 27.8462 13.9049 27.7476 13.7595 27.6029C13.6141 27.4581 13.5151 27.2738 13.4749 27.073C13.4348 26.8723 13.4554 26.6642 13.5341 26.4751C13.6128 26.286 13.746 26.1244 13.917 26.0107C14.088 25.897 14.289 25.8363 14.4946 25.8363C14.7704 25.8363 15.0348 25.9453 15.2298 26.1394C15.4248 26.3334 15.5343 26.5967 15.5343 26.8711ZM25.9309 23.5907C25.9309 23.6735 25.7542 23.7666 25.4943 23.7666H3.53658C3.27666 23.7666 3.14151 23.6735 3.09992 23.5907C3.05833 23.5079 3.09992 23.394 3.20389 23.2285C3.48459 22.7524 3.80689 22.2557 4.13958 21.759C5.17925 20.2688 6.21891 18.5717 6.37486 16.7607L6.82191 10.6448C7.04024 7.14698 8.88045 3.06969 13.3406 3.06969H15.6487C20.1088 3.06969 21.949 7.14698 22.1673 10.6551L22.6144 16.7607C22.7392 18.5924 23.8516 20.2688 24.8913 21.759C25.224 22.2557 25.5462 22.7938 25.8789 23.3216C25.912 23.3571 25.9345 23.4012 25.9437 23.4487C25.9528 23.4963 25.9484 23.5455 25.9309 23.5907Z" fill="#663700" stroke="#663700"/>
</svg>
