<svg width="8" height="29" viewBox="0 0 8 29" fill="none" xmlns="http://www.w3.org/2000/svg">
<path id="Vector" d="M3.62878 6.44445C4.32678 6.44445 5.00911 6.25547 5.58947 5.9014C6.16984 5.54734 6.62219 5.0441 6.8893 4.45531C7.15641 3.86653 7.2263 3.21865 7.09013 2.5936C6.95396 1.96855 6.61783 1.3944 6.12427 0.943768C5.63071 0.493132 5.00187 0.186246 4.31728 0.0619155C3.63269 -0.0624146 2.92309 0.00139613 2.27822 0.245278C1.63335 0.489161 1.08217 0.902161 0.694383 1.43205C0.306593 1.96194 0.0996113 2.58493 0.0996113 3.22222C0.0996113 4.07681 0.471434 4.89639 1.13328 5.50068C1.79513 6.10496 2.69278 6.44445 3.62878 6.44445ZM3.62878 22.5556C2.93077 22.5556 2.24845 22.7445 1.66808 23.0986C1.08771 23.4527 0.635367 23.9559 0.368253 24.5447C0.101138 25.1335 0.0312493 25.7813 0.167423 26.4064C0.303596 27.0314 0.639718 27.6056 1.13328 28.0562C1.62684 28.5069 2.25568 28.8138 2.94027 28.9381C3.62486 29.0624 4.33446 28.9986 4.97933 28.7547C5.6242 28.5108 6.17538 28.0978 6.56317 27.5679C6.95096 27.0381 7.15794 26.4151 7.15794 25.7778C7.15794 24.9232 6.78612 24.1036 6.12427 23.4993C5.46242 22.895 4.56477 22.5556 3.62878 22.5556ZM3.62878 11.2778C2.93077 11.2778 2.24845 11.4668 1.66808 11.8208C1.08771 12.1749 0.635367 12.6781 0.368253 13.2669C0.101138 13.8557 0.0312493 14.5036 0.167423 15.1286C0.303596 15.7537 0.639718 16.3278 1.13328 16.7785C1.62684 17.2291 2.25568 17.536 2.94027 17.6603C3.62486 17.7846 4.33446 17.7208 4.97933 17.4769C5.6242 17.2331 6.17538 16.8201 6.56317 16.2902C6.95096 15.7603 7.15794 15.1373 7.15794 14.5C7.15794 13.6454 6.78612 12.8258 6.12427 12.2215C5.46242 11.6173 4.56477 11.2778 3.62878 11.2778Z" fill="#663700"/>
</svg>
