<svg width="42" height="58" viewBox="0 0 42 58" fill="none" xmlns="http://www.w3.org/2000/svg">
<path d="M1.40437 13.9257L11.8833 24.4059V53.9802C11.8833 55.0809 12.2781 56.026 13.0676 56.8156C13.8571 57.6052 14.8021 58 15.9027 58C17.0032 58 17.9482 57.6052 18.7377 56.8156C19.5272 56.026 19.922 55.0809 19.922 53.9802V40.198H22.2188V53.9802C22.2188 55.0809 22.6135 56.026 23.403 56.8156C24.1925 57.6052 25.1376 58 26.2381 58C27.3386 58 28.2836 57.6052 29.0731 56.8156C29.8627 56.026 30.2574 55.0809 30.2574 53.9802V24.4059L40.7364 13.9257C41.4063 13.2558 41.7412 12.4422 41.7412 11.4851C41.7412 10.5281 41.4063 9.71452 40.7364 9.04455C40.0665 8.37459 39.2531 8.0396 38.2961 8.0396C37.3391 8.0396 36.5257 8.37459 35.8558 9.04455L27.6736 17.2277H14.4672L6.28499 9.04455C5.6151 8.37459 4.80167 8.0396 3.84468 8.0396C2.8877 8.0396 2.07426 8.37459 1.40437 9.04455C0.734486 9.71452 0.399544 10.5281 0.399544 11.4851C0.399544 12.4422 0.734486 13.2558 1.40437 13.9257ZM13.0317 8.0396C13.0317 10.2649 13.8152 12.1611 15.3823 13.7283C16.9494 15.2956 18.8454 16.0792 21.0704 16.0792C23.2954 16.0792 25.1914 15.2956 26.7584 13.7283C28.3255 12.1611 29.109 10.2649 29.109 8.0396C29.109 5.81436 28.3255 3.91811 26.7584 2.35087C25.1914 0.783622 23.2954 0 21.0704 0C18.8454 0 16.9494 0.783622 15.3823 2.35087C13.8152 3.91811 13.0317 5.81436 13.0317 8.0396Z" fill="#6B4E22"/>
</svg>
