<svg width="43" height="58" viewBox="0 0 43 58" fill="none" xmlns="http://www.w3.org/2000/svg">
<path d="M1.74617 13.9257L12.2251 24.4059V53.9802C12.2251 55.0809 12.6199 56.026 13.4094 56.8156C14.1989 57.6052 15.1439 58 16.2445 58C17.345 58 18.29 57.6052 19.0795 56.8156C19.869 56.026 20.2638 55.0809 20.2638 53.9802V40.198H22.5606V53.9802C22.5606 55.0809 22.9553 56.026 23.7448 56.8156C24.5343 57.6052 25.4794 58 26.5799 58C27.6804 58 28.6254 57.6052 29.4149 56.8156C30.2045 56.026 30.5992 55.0809 30.5992 53.9802V24.4059L41.0782 13.9257C41.7481 13.2558 42.083 12.4422 42.083 11.4851C42.083 10.5281 41.7481 9.71452 41.0782 9.04455C40.4083 8.37459 39.5949 8.0396 38.6379 8.0396C37.6809 8.0396 36.8675 8.37459 36.1976 9.04455L28.0154 17.2277H14.809L6.62679 9.04455C5.9569 8.37459 5.14346 8.0396 4.18648 8.0396C3.2295 8.0396 2.41606 8.37459 1.74617 9.04455C1.07628 9.71452 0.741341 10.5281 0.741341 11.4851C0.741341 12.4422 1.07628 13.2558 1.74617 13.9257ZM13.3735 8.0396C13.3735 10.2649 14.157 12.1611 15.7241 13.7283C17.2912 15.2956 19.1872 16.0792 21.4122 16.0792C23.6372 16.0792 25.5332 15.2956 27.1002 13.7283C28.6673 12.1611 29.4508 10.2649 29.4508 8.0396C29.4508 5.81436 28.6673 3.91811 27.1002 2.35087C25.5332 0.783622 23.6372 0 21.4122 0C19.1872 0 17.2912 0.783622 15.7241 2.35087C14.157 3.91811 13.3735 5.81436 13.3735 8.0396Z" fill="#6B4E22"/>
</svg>
