<svg width="48" height="46" viewBox="0 0 48 46" fill="none" xmlns="http://www.w3.org/2000/svg">
<path id="Vector" d="M46.4732 10.4818C47.2159 11.6198 47.383 12.9076 46.9745 14.3451L39.3151 41.4779C38.9623 42.7556 38.2521 43.8288 37.1844 44.6973C36.1167 45.5658 34.9794 46 33.7725 46H8.06474C6.63499 46 5.25629 45.4659 3.92866 44.3978C2.60103 43.3296 1.67726 42.0169 1.15735 40.4596C0.711716 39.122 0.693148 37.8542 1.10165 36.6562C1.10165 36.5764 1.1295 36.3069 1.18521 35.8477C1.24091 35.3885 1.27805 35.0191 1.29662 34.7396C1.31518 34.5799 1.28733 34.3652 1.21306 34.0957C1.13879 33.8262 1.11093 33.6315 1.1295 33.5117C1.16664 33.2921 1.24091 33.0825 1.35232 32.8828C1.46373 32.6832 1.61692 32.4486 1.81188 32.179C2.00685 31.9095 2.16004 31.6749 2.27145 31.4753C2.69852 30.7166 3.1163 29.8032 3.52481 28.735C3.93331 27.6669 4.21183 26.7535 4.36038 25.9948C4.41608 25.7951 4.42072 25.4957 4.3743 25.0964C4.32788 24.697 4.32324 24.4175 4.36038 24.2578C4.41608 24.0382 4.57391 23.7587 4.83387 23.4193C5.09382 23.0799 5.25165 22.8503 5.30736 22.7305C5.69729 22.0117 6.08722 21.0933 6.47716 19.9753C6.86709 18.8572 7.09919 17.9588 7.17347 17.2799C7.19203 17.1003 7.16882 16.7808 7.10383 16.3216C7.03885 15.8624 7.04349 15.5829 7.11776 15.4831C7.19203 15.2235 7.39628 14.9191 7.73051 14.5697C8.06474 14.2203 8.26899 13.9957 8.34326 13.8958C8.69606 13.3767 9.09064 12.5332 9.52699 11.3652C9.96334 10.1973 10.2187 9.23394 10.2929 8.47526C10.3115 8.31554 10.2836 8.06098 10.2094 7.71159C10.1351 7.3622 10.1165 7.09766 10.1537 6.91797C10.1908 6.75825 10.2744 6.57856 10.4043 6.37891C10.5343 6.17925 10.7014 5.94965 10.9057 5.6901C11.1099 5.43056 11.2678 5.22092 11.3792 5.0612C11.5277 4.82161 11.6809 4.51714 11.8387 4.14779C11.9966 3.77843 12.1358 3.42904 12.2565 3.09961C12.3772 2.77018 12.5258 2.41081 12.7022 2.02148C12.8786 1.63216 13.0596 1.31272 13.2453 1.06315C13.431 0.813585 13.677 0.578993 13.9834 0.359375C14.2897 0.139757 14.624 0.0249566 14.9861 0.014974C15.3481 0.00499132 15.7891 0.0598958 16.309 0.179688L16.2812 0.269531C16.9868 0.0898438 17.4603 0 17.7017 0H38.8973C40.2714 0 41.3298 0.559028 42.0725 1.67708C42.8152 2.79514 42.9823 4.09288 42.5738 5.57031L34.9423 32.7031C34.2738 35.079 33.61 36.6113 32.9508 37.3001C32.2917 37.9889 31.0986 38.3333 29.3718 38.3333H5.1681C4.66675 38.3333 4.31396 38.4831 4.1097 38.7826C3.90545 39.102 3.89617 39.5312 4.08185 40.0703C4.52749 41.4679 5.8644 42.1667 8.09259 42.1667H33.8003C34.3388 42.1667 34.8587 42.0119 35.3601 41.7025C35.8614 41.393 36.1863 40.9787 36.3349 40.4596L44.6906 10.901C44.8206 10.4618 44.867 9.89279 44.8299 9.19401C45.5355 9.49349 46.0832 9.92274 46.4732 10.4818ZM16.8382 10.5417C16.764 10.8012 16.7825 11.0258 16.8939 11.2155C17.0054 11.4052 17.191 11.5 17.451 11.5H34.3852C34.6266 11.5 34.8634 11.4052 35.0955 11.2155C35.3276 11.0258 35.4808 10.8012 35.555 10.5417L36.1399 8.625C36.2142 8.36545 36.1956 8.14084 36.0842 7.95117C35.9728 7.7615 35.7871 7.66667 35.5272 7.66667H18.5929C18.3515 7.66667 18.1148 7.7615 17.8827 7.95117C17.6506 8.14084 17.4974 8.36545 17.4231 8.625L16.8382 10.5417ZM14.5265 18.2083C14.4522 18.4679 14.4708 18.6925 14.5822 18.8822C14.6936 19.0718 14.8793 19.1667 15.1392 19.1667H32.0735C32.3149 19.1667 32.5516 19.0718 32.7837 18.8822C33.0158 18.6925 33.169 18.4679 33.2433 18.2083L33.8282 16.2917C33.9025 16.0321 33.8839 15.8075 33.7725 15.6178C33.6611 15.4282 33.4754 15.3333 33.2154 15.3333H16.2812C16.0398 15.3333 15.8031 15.4282 15.571 15.6178C15.3389 15.8075 15.1857 16.0321 15.1114 16.2917L14.5265 18.2083Z" fill="#6B4E22"/>
</svg>
