<svg width="56" height="54" viewBox="0 0 56 54" fill="none" xmlns="http://www.w3.org/2000/svg">
<g id="Group 65">
<path id="Vector" d="M8.59563 13.167C8.72879 13.035 8.84802 12.8946 8.96097 12.751L10.7783 14.5534C11.9515 12.6088 13.4467 10.8774 15.1916 9.43188L13.7495 8.00168C13.8962 7.88829 14.0394 7.76815 14.1745 7.63429C15.9298 5.89345 15.9351 3.05879 14.1745 1.31267C12.4086 -0.438611 9.5502 -0.433337 7.79485 1.3074C6.5964 2.49605 6.20926 4.18426 6.63884 5.70422C5.11153 5.27292 3.41457 5.65159 2.21601 6.84014C0.450132 8.59142 0.450132 11.4209 2.21601 13.1723C3.97668 14.9183 6.82975 14.9183 8.59563 13.167ZM42.483 8.00189L41.0345 9.43842C42.7791 10.8849 44.2764 12.6171 45.4525 14.5551L47.2714 12.7513C47.3843 12.8948 47.5037 13.0351 47.6369 13.1671C49.4029 14.9184 52.2559 14.9184 54.0218 13.1671C55.7824 11.421 55.7824 8.59163 54.0165 6.84024C52.8181 5.65169 51.1105 5.27302 49.5937 5.70433C50.0233 4.19491 49.6415 2.50143 48.4377 1.30761C46.6823 -0.433232 43.824 -0.438506 42.0634 1.30761C40.2974 3.05889 40.3028 5.89366 42.0581 7.6345C42.193 7.76815 42.3362 7.8884 42.483 8.00189ZM47.6422 40.8254C47.5073 40.9592 47.386 41.1013 47.2717 41.2468L43.6231 37.6285C42.663 38.7621 41.5734 39.8088 40.3458 40.7361C39.7319 41.2012 39.2163 41.7481 38.8077 42.3511L42.4827 45.9957C42.338 46.1078 42.1966 46.2261 42.0634 46.3582C40.2975 48.1096 40.2975 50.939 42.0634 52.6904C43.8239 54.4365 46.677 54.4365 48.443 52.6851C49.6415 51.4965 50.0233 49.8031 49.5885 48.2989C51.1105 48.7249 52.8181 48.3463 54.0218 47.1523C55.7772 45.4115 55.7825 42.5768 54.0218 40.8307C52.2559 39.0793 49.3975 39.0846 47.6422 40.8254ZM16.0082 40.8314C14.7338 39.8829 13.595 38.8097 12.6017 37.6359L8.96076 41.2468C8.84643 41.1014 8.72528 40.9593 8.59031 40.8253C6.83497 39.0845 3.97668 39.0793 2.21601 40.8253C0.450132 42.5767 0.45545 45.4114 2.21069 47.1522C3.40914 48.3408 5.11153 48.7247 6.64405 48.2988C6.20915 49.8135 6.59098 51.4964 7.78943 52.685C9.55541 54.4364 12.4084 54.4364 14.1744 52.685C15.935 50.939 15.935 48.1095 14.1691 46.3581C14.0359 46.226 13.8943 46.1078 13.7496 45.9958L17.4303 42.3454C17.0456 41.7639 16.5695 41.2477 16.0082 40.8314Z" fill="#6B4E22"/>
<path id="Vector_2" d="M39.6432 39.8003C44.803 35.9029 47.9004 29.447 46.9929 22.3292C45.9054 13.7832 38.9083 6.97028 30.2761 6.02571C18.7941 4.7687 9.08203 13.6494 9.08203 24.7835C9.08203 30.9642 12.0744 36.4458 16.7017 39.8894C18.6066 41.3025 19.664 43.5711 19.664 45.9288V48.0485C19.664 49.6923 21.0065 51.0235 22.6639 51.0235H23.0913V48.5394C23.0913 47.9593 23.5638 47.4907 24.1487 47.4907C24.7337 47.4907 25.2062 47.9593 25.2062 48.5394V51.0235H27.0586V48.5394C27.0586 47.9593 27.531 47.4907 28.116 47.4907C28.701 47.4907 29.1734 47.9593 29.1734 48.5394V51.0235H31.0259V48.5394C31.0259 47.9593 31.4983 47.4907 32.0833 47.4907C32.6683 47.4907 33.1407 47.9593 33.1407 48.5394V51.0235H33.5682C35.2256 51.0235 36.5681 49.6922 36.5681 48.0485V45.8024C36.5684 43.4298 37.7383 41.2431 39.6432 39.8003ZM19.8601 33.4102C17.1013 33.4102 14.8708 31.1982 14.8708 28.4621C14.8708 25.7322 17.1013 23.5202 19.8601 23.5202C22.6129 23.5202 25.8573 23.7102 25.8573 26.4402C25.8573 29.1761 22.6129 33.4102 19.8601 33.4102ZM30.1137 41.3521L26.1173 41.3497C25.1391 41.349 24.5531 40.271 25.0903 39.4602L27.0877 36.4457C27.5735 35.7125 28.6575 35.7125 29.1432 36.4457L31.1423 39.4626C31.6797 40.274 31.0925 41.3526 30.1137 41.3521ZM36.3722 33.4102C33.6195 33.4102 30.3751 29.1761 30.3751 26.4401C30.3751 23.71 33.6195 23.5201 36.3722 23.5201C39.1311 23.5201 41.3615 25.7321 41.3615 28.462C41.3615 31.1982 39.1311 33.4102 36.3722 33.4102Z" fill="#6B4E22"/>
</g>
</svg>
