<svg width="489" height="441" viewBox="0 0 489 441" fill="none" xmlns="http://www.w3.org/2000/svg">
<path fill-rule="evenodd" clip-rule="evenodd" d="M222.227 417.322C260.961 423.941 302.443 420.518 342.505 405.32C365.568 396.572 386.395 384.59 404.61 370.152C416.693 380.589 434.75 384.048 451.656 377.635C475.523 368.581 488.057 343.279 479.652 321.121C476.357 312.435 470.333 305.521 462.788 300.871C490.328 249.66 496.664 188.775 475.118 131.978C434.269 24.2947 308.667 -27.9154 194.577 15.3638C167.543 25.619 143.581 40.3156 123.297 58.2055C101.988 43.8476 75.3832 39.474 50.8572 48.7778C8.96123 64.6708 -11.0037 114.456 6.26434 159.977C14.7023 182.221 30.4693 199.33 49.2762 209.157C48.0504 235.646 52.0637 262.608 61.9639 288.706C75.739 325.019 99.152 355.024 128.511 377.185C127.614 379.911 126.961 382.702 126.563 385.53C125.651 392.018 126.101 398.568 127.888 404.806C129.675 411.044 132.764 416.848 136.978 421.886C141.192 426.924 146.449 431.098 152.449 434.17C158.449 437.241 165.073 439.15 171.945 439.787C178.817 440.424 185.801 439.777 192.499 437.882C199.197 435.988 205.478 432.884 210.982 428.746C215.323 425.483 219.115 421.627 222.227 417.322Z" fill="#D97D3B" fill-opacity="0.74"/>
</svg>
